<svg xmlns="http://www.w3.org/2000/svg" width="1024" height="1024" viewBox="0 0 1024 1024">
  <defs>
    <linearGradient id="blue" x1="0" y1="0" x2="1" y2="1">
      <stop offset="0" stop-color="#38A4FF"/>
      <stop offset="1" stop-color="#0064D9"/>
    </linearGradient>
  </defs>
  <rect width="1024" height="1024" fill="url(#blue)"/>
  <path d="M512 154c-190 0-344 148-344 331 0 238 293 408 328 427a33 33 0 0 0 32 0c35-19 328-189 328-427 0-183-154-331-344-331z" fill="#fff"/>
  <path d="M348 381h302v146c0 95-70 166-151 166s-151-71-151-166V381z" fill="#6B4F3B"/>
  <path d="M650 424h35c76 0 76 116 0 116h-38" fill="none" stroke="#6B4F3B" stroke-width="38" stroke-linecap="round"/>
  <path d="M412 323c-25-31 19-48 0-80M507 323c-25-31 19-48 0-80M602 323c-25-31 19-48 0-80" fill="none" stroke="#6B4F3B" stroke-width="24" stroke-linecap="round"/>
</svg>
